<svg width="82" height="100" viewBox="0 0 82 100" fill="none" xmlns="http://www.w3.org/2000/svg">
<path d="M40.9729 99.6429L32.8079 95.5419V89.2242L25.6035 91.9212L19.3596 88.7439V84.2365L13.7069 85.8621L8.64533 83.3129V79.9877L4.10099 81.0222L0 78.9532V20.6527L4.10099 18.6207L8.64533 19.6552V16.3301L13.7069 13.7808L19.3596 15.4064V10.899L25.6035 7.72168L32.8079 10.3818V4.10099L40.9729 0L62.8079 11.0099V21.4655L65.1355 22.3153V16.1084L70.3079 14.7414L81.9459 20.6897V43.8917L77.2537 44.1503L68.2759 43.3375V56.0838L77.2537 55.271L81.9459 55.4926V78.9532L70.3079 84.9015L65.1355 83.5345V77.1059L62.8079 77.9557V88.6331L40.9729 99.6429Z" fill="#F58534"/>
<path d="M65.1355 43.0419V16.1084L70.3079 14.7414V42.6724L65.1355 43.0419ZM65.1355 56.3424L70.3079 56.7119V84.9015L65.1355 83.5345V56.3424ZM32.8079 40.6035V4.10099L40.9729 0V39.7907L32.8079 40.6035ZM32.8079 95.5419V58.7808L40.9729 59.6306V99.6429L32.8079 95.5419ZM19.3596 88.7439V10.899L25.6035 7.72168V91.9212L19.3596 88.7439ZM8.64533 83.3129V16.3301L13.7069 13.7808V85.8621L8.64533 83.3129ZM4.10099 81.0222L0 78.9532V20.6527L4.10099 18.6207V81.0222Z" fill="black" fill-opacity="0.3"/>
<path d="M65.1355 43.042L70.3079 42.6725L81.9459 43.8917L77.2538 44.1503L65.1355 43.042ZM32.8079 40.6035L40.9729 39.7907L62.8079 41.9705L55.0124 42.4508L32.8079 40.6035Z" fill="black" fill-opacity="0.5"/>
<path d="M65.1355 56.3425L77.2538 55.2711L81.9459 55.4927L70.3079 56.7119L65.1355 56.3425ZM32.8079 58.7809L55.0124 56.9336L62.8079 57.4139L40.9729 59.6307L32.8079 58.7809Z" fill="white" fill-opacity="0.3"/>
</svg>
