<svg width="82" height="100" viewBox="0 0 82 100" fill="none" xmlns="http://www.w3.org/2000/svg">
<path d="M40.7818 99.1781L32.6549 95.0962V88.808L25.484 91.4924L19.2693 88.3667V83.8803L13.643 85.4616L8.60499 82.9242V79.6146L4.08186 80.6442L0 78.5849V20.5932L4.08186 18.5338L8.60499 19.5635V16.2539L13.643 13.7165L19.2693 15.2978V10.8482L25.484 7.72243L32.6549 10.3701V4.08186L40.7818 0L81.5636 20.5932V78.5849L40.7818 99.1781Z" fill="#F58534"/>
<path d="M4.08186 80.6442L0 78.5849V20.5932L4.08186 18.5338V80.6442ZM13.643 85.4616L8.60499 82.9242V16.2539L13.643 13.7165V85.4616ZM25.484 91.4924L19.2693 88.3667V10.8482L25.484 7.72243V91.4924ZM32.6549 95.0962V4.08186L40.7818 0V99.1781L32.6549 95.0962Z" fill="black" fill-opacity="0.3"/>
</svg>
